<svg id="sw-js-blob-svg" viewBox="0 0 100 100" xmlns="http://www.w3.org/2000/svg" version="1.1">                               
    <path fill="#00B7D5" d="M19.6,-32.9C24.5,-31.2,26.8,-24,30.4,-17.6C34.1,-11.2,39.1,-5.6,39.2,0C39.3,5.7,34.4,11.4,30.6,17.5C26.7,23.5,23.9,30,19,33.3C14,36.6,7,36.7,1.9,33.4C-3.2,30.1,-6.5,23.5,-11,20C-15.6,16.5,-21.5,16.2,-23.7,13.4C-25.9,10.6,-24.4,5.3,-26,-0.9C-27.6,-7.1,-32.4,-14.3,-30,-16.8C-27.6,-19.2,-18.1,-17,-11.9,-17.9C-5.7,-18.8,-2.9,-22.8,2.3,-26.7C7.4,-30.6,14.8,-34.5,19.6,-32.9Z" width="100%" height="100%" transform="translate(50 50)" stroke-width="0" style="transition: all 0.3s ease 0s;" stroke="#00B7D5"></path>              
</svg>