<svg viewBox="0 0 100 100" xmlns="http://www.w3.org/2000/svg" version="1.1">                                
    <path fill="rgba(255, 255, 255, 1)" d="M23.8,-38.4C31,-37,37.1,-31,41.2,-23.8C45.2,-16.7,47.2,-8.3,43,-2.4C38.8,3.5,28.4,7,24.2,13.8C19.9,20.5,21.7,30.6,18.7,36C15.7,41.3,7.8,41.8,0.2,41.5C-7.5,41.2,-14.9,40,-19.2,35.4C-23.5,30.8,-24.7,22.8,-25.5,16.4C-26.3,9.9,-26.8,5,-29.6,-1.6C-32.5,-8.2,-37.6,-16.4,-35.7,-21.1C-33.8,-25.7,-25,-26.8,-17.9,-28.3C-10.7,-29.8,-5.4,-31.7,1.5,-34.3C8.3,-36.8,16.6,-39.9,23.8,-38.4Z" width="100%" height="100%" transform="translate(50 50)" stroke-width="0" style="transition: all 0.3s ease 0s;" stroke="rgba(255, 255, 255, 1)"></path>              
</svg>