<svg id="sw-js-blob-svg" viewBox="0 0 100 100" xmlns="http://www.w3.org/2000/svg" version="1.1">
    <path fill="#29C9E3" d="M19.3,-36.4C23.3,-31.2,23.4,-22.4,26,-15.7C28.7,-9.1,33.8,-4.5,35.3,0.9C36.9,6.3,35,12.7,31.8,18.5C28.7,24.2,24.3,29.5,18.8,30.5C13.3,31.6,6.7,28.5,1.2,26.5C-4.3,24.4,-8.6,23.4,-15.4,23.1C-22.2,22.8,-31.6,23.2,-37.7,19.5C-43.8,15.7,-46.7,7.9,-45.9,0.5C-45,-6.9,-40.4,-13.8,-33.7,-16.4C-26.9,-19,-18,-17.3,-12,-21.3C-6,-25.3,-3,-34.9,2.3,-39C7.7,-43.1,15.4,-41.5,19.3,-36.4Z" width="100%" height="100%" transform="translate(50 50)" stroke-width="0" style="transition: all 0.3s ease 0s;" stroke="#29C9E3"></path>
</svg>