<svg id="sw-js-blob-svg" viewBox="0 0 100 100" xmlns="http://www.w3.org/2000/svg" version="1.1">                    
    <defs>                         
        <linearGradient id="sw-gradient" x1="0" x2="1" y1="1" y2="0">                            
        <stop id="stop1" stop-color="rgba(255, 207, 153, 1)" offset="0%"></stop>                            
        <stop id="stop2" stop-color="rgba(232, 163, 96, 1)" offset="100%"></stop>                       
        </linearGradient>                    
    </defs>                
    <path fill="url(#sw-gradient)" d="M10.9,-20C13.8,-17.3,15.6,-13.7,18.9,-10.2C22.2,-6.7,26.9,-3.4,30.5,2.1C34.1,7.5,36.6,15,35.5,22.2C34.3,29.5,29.7,36.4,23.2,36.8C16.7,37.3,8.3,31.3,2.5,26.9C-3.3,22.6,-6.5,19.8,-10.2,17.7C-13.9,15.6,-18,14.2,-20.3,11.4C-22.5,8.5,-22.9,4.3,-21.8,0.6C-20.7,-3,-18.1,-6,-16.5,-9.9C-14.9,-13.9,-14.3,-18.8,-11.7,-21.8C-9.1,-24.7,-4.6,-25.8,-0.3,-25.3C4,-24.8,8,-22.8,10.9,-20Z" width="100%" height="100%" transform="translate(50 50)" stroke-width="0" style="transition: all 0.3s ease 0s;" stroke="url(#sw-gradient)"></path>              
</svg>